<?xml version="1.0" encoding="UTF-8"?>
<svg xmlns="http://www.w3.org/2000/svg" xmlns:xlink="http://www.w3.org/1999/xlink" width="21px" height="21px" viewBox="0 0 21 21" version="1.1">
<g id="surface1">
<path style=" stroke:none;fill-rule:nonzero;fill:rgb(0%,0%,0%);fill-opacity:1;" d="M 10.5 0 C 6.480469 0 3.210938 3.269531 3.210938 7.289062 C 3.210938 11.15625 9.824219 20.191406 10.105469 20.574219 L 10.367188 20.933594 C 10.398438 20.976562 10.449219 21 10.5 21 C 10.550781 21 10.601562 20.976562 10.632812 20.933594 L 10.894531 20.574219 C 11.175781 20.191406 17.789062 11.15625 17.789062 7.289062 C 17.789062 3.269531 14.519531 0 10.5 0 Z M 10.5 4.675781 C 11.9375 4.675781 13.109375 5.847656 13.109375 7.289062 C 13.109375 8.726562 11.9375 9.898438 10.5 9.898438 C 9.0625 9.898438 7.890625 8.726562 7.890625 7.289062 C 7.890625 5.847656 9.0625 4.675781 10.5 4.675781 Z M 10.5 4.675781 "/>
</g>
</svg>
